<svg width="256" height="256" viewBox="0 0 256 256" fill="none" xmlns="http://www.w3.org/2000/svg">
<rect width="256" height="256" fill="#E63228"/>
<path fill-rule="evenodd" clip-rule="evenodd" d="M42.1596 100.458H53.7392C54.3859 124.212 63.1018 140.681 75.5686 153.13C87.5634 165.125 104.995 175.148 128.212 174.968C151.438 174.798 168.453 165.238 180.562 153.13C193.02 140.701 201.919 124.307 202.42 100.458H214.132C213.301 127.714 203.439 146.901 188.971 161.378C175.419 174.921 154.958 186.699 128.079 186.699C101.315 186.699 81.3588 175.242 67.3294 161.539C52.7439 147.231 43.155 127.761 41.999 100.902C41.999 100.695 41.9754 100.506 42.1596 100.458Z" fill="white"/>
<path fill-rule="evenodd" clip-rule="evenodd" d="M111.72 69.3712C117.104 72.8439 122.592 77.4026 128.079 81.2437C133.591 77.3553 138.914 73.2784 144.256 69.2295C142.689 75.4393 140.311 82.0557 138.48 88.4729C143.501 92.7104 149.862 96.363 154.543 100.459H134.582C132.336 106.763 130.278 113.247 128.212 119.721C125.971 113.454 123.866 107.018 121.851 100.459H101.895C101.626 99.9301 102.867 99.4861 103.481 99.024C108.039 95.721 113.168 91.946 117.798 88.6051C115.717 82.2627 113.862 75.6664 111.72 69.3712Z" fill="white"/>
</svg>
