<?xml version="1.0" encoding="utf-8"?>
<!-- Generator: Adobe Illustrator 22.1.0, SVG Export Plug-In . SVG Version: 6.00 Build 0)  -->
<svg version="1.1" id="Layer_1" xmlns="http://www.w3.org/2000/svg" xmlns:xlink="http://www.w3.org/1999/xlink" x="0px" y="0px"
	 viewBox="0 0 612 792" style="enable-background:new 0 0 612 792;" xml:space="preserve">
<style type="text/css">
	.st0{fill:#E42313;stroke:#E63329;}
	.st1{fill-rule:evenodd;clip-rule:evenodd;}
</style>
<g>
	<polygon class="st0" points="357,346.4 339.7,346.4 334.4,362.8 329,346.4 311.8,346.4 325.7,336.3 320.4,319.8 334.4,330 
		348.3,319.8 343,336.3 357,346.4 	"/>
	<path d="M78.5,377.5H65.8l-6.4,41.4c-0.8,4.8-1.3,9.5-1.5,14.4h-0.2c0-3-1-12.8-1.3-14.9l-5.5-40.9H34.5l13.8,67.1h17.2l4.8-28.1
		c0.8-5.2,1.3-10.6,1.5-15.9h0.5c0.5,5.7,1,11.3,2,16.9l5.1,27.1h16.9l13.6-67.1H94.3l-5.1,40.7c-0.4,2-1.3,11.9-1.3,14.9h-0.4
		c-0.2-4.9-0.7-9.6-1.5-14.4L78.5,377.5L78.5,377.5z"/>
	<path class="st1" d="M164.1,444.6c-0.8-3.1-1.3-6.2-1.3-9.4v-39.6c0.2-8.8-1.1-19.9-22.1-19.9c-19.4,0-23.5,8.9-23.4,21.6H132
		c-0.1-6.1,1.1-9.8,8.1-9.8c4.2,0,6.5,0.5,7.3,3.4c1.3,5.5-1.1,8.4-7.6,11.2c-12.1,5-22.9,8.7-22.9,24c0,13.8,5.5,20.1,18,20.1
		c5.2,0,10-3.1,13.6-8.7h0.2c-0.2,2.4-0.1,4.8,1,6.9H164.1L164.1,444.6z M147.4,416.5c-0.4,6.4,1.3,18-7.8,18
		c-5.7,0-7.3-3.4-7.3-8.6c0-2.9,0.4-6.2,2.6-8.1c4-3.3,8.7-5.9,12.5-8.6V416.5L147.4,416.5z"/>
	<path class="st1" d="M206.5,402.5v20.1c0,7.7-2.5,11.9-7.5,11.9c-4.8,0-6.4-5.1-6.8-11.5v-22.4c0.5-6.7-0.2-13,7-13
		S206.7,397.1,206.5,402.5L206.5,402.5z M177.4,452.1c0.8,11.3,9.3,15.1,19.5,15.1c21.2,0,25-10.9,25-24.6v-65h-15.5v6.9h-0.2
		c-2.1-6.1-6.4-8.8-13.4-8.7c-10,0.2-15.7,5.5-16.1,23.9v24.3c0.4,10.7,3,22.5,16.1,22.5c6.7-0.4,11.1-2.4,14.2-8.8l0.2,0.2v7.7
		c0,5.2-1.2,10.5-7.7,10.5c-1.9,0-3.6-0.2-4.8-1c-1.1-0.6-1.8-1.5-1.8-3H177.4L177.4,452.1z"/>
	<path class="st1" d="M281.9,444.6c-0.8-3.1-1.3-6.2-1.3-9.4v-39.6c0.2-8.8-1.1-19.9-22.1-19.9c-19.4,0-23.5,8.9-23.4,21.6h14.7
		c-0.1-6.1,1.1-9.8,8.1-9.8c4.2,0,6.5,0.5,7.3,3.4c1.3,5.5-1.1,8.4-7.6,11.2c-12.1,5-22.9,8.7-22.9,24c0,13.8,5.5,20.1,18,20.1
		c5.2,0,10-3.1,13.6-8.7h0.2c-0.2,2.4-0.1,4.8,1,6.9H281.9L281.9,444.6z M265.2,416.5c-0.4,6.4,1.3,18-7.8,18
		c-5.7,0-7.3-3.4-7.3-8.6c0-2.9,0.4-6.2,2.6-8.1c4-3.3,8.7-5.9,12.5-8.6V416.5L265.2,416.5z"/>
	<path d="M311.9,377.5h-15.5v67.1h15.5v-44.1c0-7.4,0.4-12.7,7.6-12.8c7.1-0.1,7.6,4.9,7.6,10.8v46.1h15.5v-44.1
		c0-7.8,1.2-12.5,7.8-12.8c6.8-0.4,7.4,5.6,7.4,11.7v45.3h15.5V390c0-7.1-5-14.3-16.4-14.3c-7.6,0-12.5,2.9-15.6,8.7
		c-1.1-6.3-8.7-8.8-14.4-8.7c-5,0.2-11.3,1.3-14.7,8.7h-0.2V377.5L311.9,377.5z"/>
	<path class="st1" d="M432.1,444.6c-0.8-3.1-1.3-6.2-1.3-9.4v-39.6c0.2-8.8-1.1-19.9-22.1-19.9c-19.4,0-23.5,8.9-23.4,21.6H400
		c-0.1-6.1,1.1-9.8,8.1-9.8c4.2,0,6.5,0.5,7.3,3.4c1.3,5.5-1.1,8.4-7.6,11.2c-12.1,5-23,8.7-23,24c0,13.8,5.5,20.1,18,20.1
		c5.2,0,10-3.1,13.6-8.7h0.2c-0.2,2.4-0.1,4.8,1,6.9H432.1L432.1,444.6z M415.4,416.5c-0.4,6.4,1.3,18-7.8,18
		c-5.7,0-7.3-3.4-7.3-8.6c0-2.9,0.4-6.2,2.6-8.1c4-3.3,8.7-5.9,12.5-8.6V416.5L415.4,416.5z"/>
	<path d="M461.9,377.5h-15.5v67.1h15.5v-44.1c0-7.4,0.4-12.7,7.6-12.8c7.1-0.1,7.6,4.9,7.6,10.8v46.1h15.5v-44.1
		c0-7.8,1.2-12.5,7.8-12.8c6.8-0.4,7.4,5.6,7.4,11.7v45.3h15.5V390c0-7.1-5-14.3-16.4-14.3c-7.6,0-12.5,2.9-15.6,8.7
		c-1.1-6.3-8.7-8.8-14.4-8.7c-5,0.2-11.3,1.3-14.7,8.7h-0.2V377.5L461.9,377.5z"/>
	<path class="st1" d="M582.5,444.9c-0.8-3.1-1.3-6.2-1.3-9.4V396c0.2-8.8-1.1-19.9-22.1-19.9c-19.4,0-23.5,8.9-23.4,21.6h14.7
		c-0.1-6.1,1.1-9.8,8.1-9.8c4.2,0,6.5,0.5,7.3,3.4c1.3,5.5-1.1,8.4-7.6,11.2c-12.1,5-22.9,8.7-22.9,24c0,13.8,5.5,20.1,18,20.1
		c5.2,0,10-3.1,13.6-8.7h0.2c-0.2,2.4-0.1,4.8,1,6.9H582.5L582.5,444.9z M565.7,416.9c-0.4,6.4,1.3,18-7.8,18
		c-5.7,0-7.3-3.4-7.3-8.6c0-2.9,0.4-6.2,2.6-8.1c4-3.3,8.7-5.9,12.5-8.6V416.9L565.7,416.9z"/>
</g>
</svg>
