<svg width="256" height="70" viewBox="0 0 256 70" fill="none" xmlns="http://www.w3.org/2000/svg">
<path d="M150.632 13.0055L142.567 13.006L140.075 20.673L137.583 13.006H129.519L136.043 8.26714L133.551 0.600586L140.075 5.33894L146.6 0.600586L144.108 8.26761L150.632 13.0055Z" fill="#E63228"/>
<path fill-rule="evenodd" clip-rule="evenodd" d="M150.632 13.0055L142.567 13.006L140.075 20.673L137.583 13.006H129.519L136.043 8.26714L133.551 0.600586L140.075 5.33894L146.6 0.600586L144.108 8.26761L150.632 13.0055Z" stroke="#E63228" stroke-width="0.00182429" stroke-miterlimit="2"/>
<path d="M20.5541 27.5288H14.6097L11.6104 46.854C11.2212 49.0751 10.9988 51.2962 10.8881 53.573H10.7769C10.7769 52.185 10.3326 47.576 10.1658 46.6317L7.61037 27.5288H0L6.44382 58.8488H14.4989L16.7213 45.7429C17.11 43.3004 17.3324 40.8005 17.4431 38.302H17.6655C17.8874 40.9677 18.1098 43.5774 18.6097 46.1875L20.9984 58.8488H28.8872L35.2198 27.5288H27.9425L25.5538 46.521C25.387 47.4644 24.9428 52.0738 24.9428 53.4623H24.776C24.6648 51.1851 24.4429 48.964 24.0537 46.7424L20.5541 27.5288Z" fill="black"/>
<path fill-rule="evenodd" clip-rule="evenodd" d="M52.7067 45.7429C52.5399 48.742 53.3178 54.1286 49.0403 54.1286C46.3736 54.1286 45.6514 52.5183 45.6514 50.13C45.6514 48.7976 45.8181 47.2429 46.874 46.3542C48.7628 44.799 50.9291 43.5773 52.7067 42.3556V45.7429ZM60.5395 58.8487C60.1508 57.4047 59.9279 55.9612 59.9279 54.4621V35.9696C60.04 31.8603 59.429 26.6956 49.5962 26.6956C40.5409 26.6956 38.5965 30.8604 38.6521 36.8027H45.5406C45.485 33.9703 46.0405 32.2489 49.3183 32.2489C51.2627 32.2489 52.3736 32.4712 52.7067 33.8591C53.3178 36.4137 52.2068 37.8022 49.1515 39.0795C43.485 41.4117 38.4297 43.1332 38.4297 50.2967C38.4297 56.7388 40.9852 59.6814 46.8184 59.6814C49.2627 59.6814 51.4846 58.2379 53.1515 55.6277H53.2622C53.1515 56.7388 53.2071 57.8493 53.7065 58.8487H60.5395Z" fill="black"/>
<path fill-rule="evenodd" clip-rule="evenodd" d="M66.7638 62.3472C67.1529 67.6226 71.0969 69.3996 75.8743 69.3996C85.7626 69.3996 87.5402 64.2909 87.5402 57.9049V27.5287H80.3185V30.7498H80.2073C79.2076 27.9173 77.2076 26.64 73.9303 26.6956C69.2636 26.8067 66.597 29.2502 66.4307 37.8578V49.1862C66.597 54.1838 67.8196 59.6815 73.9303 59.6815C77.0413 59.5152 79.0964 58.5709 80.5409 55.5727L80.6516 55.6838V59.2929C80.6516 61.7368 80.0962 64.1798 77.0413 64.1798C76.1522 64.1798 75.3744 64.0691 74.8189 63.7352C74.319 63.4578 73.9854 63.0136 73.9854 62.3472H66.7638ZM80.3185 39.1906V48.5753C80.3185 52.1849 79.152 54.1286 76.8189 54.1286C74.5965 54.1286 73.8191 51.7403 73.6523 48.7421V38.3019C73.8742 35.192 73.5412 32.2489 76.9296 32.2489C80.3185 32.2489 80.4297 36.6916 80.3185 39.1906Z" fill="black"/>
<path fill-rule="evenodd" clip-rule="evenodd" d="M107.75 45.7429C107.583 48.742 108.361 54.1286 104.083 54.1286C101.417 54.1286 100.694 52.5183 100.694 50.13C100.694 48.7976 100.861 47.2429 101.916 46.3542C103.805 44.799 105.972 43.5773 107.75 42.3556V45.7429ZM115.582 58.8487C115.194 57.4047 114.971 55.9612 114.971 54.4621V35.9696C115.082 31.8603 114.471 26.6956 104.639 26.6956C95.5838 26.6956 93.6394 30.8604 93.695 36.8027H100.583C100.528 33.9703 101.083 32.2489 104.361 32.2489C106.305 32.2489 107.416 32.4712 107.75 33.8591C108.361 36.4137 107.249 37.8022 104.194 39.0795C98.528 41.4117 93.4727 43.1332 93.4727 50.2967C93.4727 56.7388 96.0281 59.6814 101.861 59.6814C104.306 59.6814 106.528 58.2379 108.194 55.6277H108.305C108.194 56.7388 108.25 57.8493 108.749 58.8487H115.582Z" fill="black"/>
<path d="M129.595 27.5289H122.373V58.8489H129.595V38.2465C129.595 34.8036 129.762 32.3046 133.15 32.249C136.483 32.1935 136.706 34.5257 136.706 37.3026V58.8489H143.927V38.2465C143.927 34.5813 144.483 32.4158 147.594 32.249C150.76 32.0823 151.038 34.8587 151.038 37.6912V58.8489H158.26V33.3596C158.26 30.0279 155.926 26.6957 150.594 26.6957C147.038 26.6957 144.76 28.0286 143.316 30.7499C142.816 27.8063 139.261 26.6402 136.594 26.6957C134.261 26.8069 131.317 27.3066 129.706 30.7499H129.595V27.5289Z" fill="black"/>
<path fill-rule="evenodd" clip-rule="evenodd" d="M177.914 45.7429C177.747 48.742 178.525 54.1286 174.248 54.1286C171.581 54.1286 170.858 52.5183 170.858 50.13C170.858 48.7976 171.025 47.2429 172.081 46.3542C173.97 44.799 176.136 43.5773 177.914 42.3556V45.7429ZM185.747 58.8487C185.358 57.4047 185.135 55.9612 185.135 54.4621V35.9696C185.247 31.8603 184.636 26.6956 174.803 26.6956C165.747 26.6956 163.804 30.8604 163.859 36.8027H170.747C170.692 33.9703 171.248 32.2489 174.525 32.2489C176.469 32.2489 177.58 32.4712 177.914 33.8591C178.525 36.4137 177.414 37.8022 174.359 39.0795C168.692 41.4117 163.637 43.1332 163.637 50.2967C163.637 56.7388 166.192 59.6814 172.025 59.6814C174.469 59.6814 176.692 58.2379 178.358 55.6277H178.47C178.358 56.7388 178.414 57.8493 178.914 58.8487H185.747Z" fill="black"/>
<path d="M199.635 27.5289H192.413V58.8489H199.635V38.2465C199.635 34.8036 199.802 32.3046 203.19 32.249C206.523 32.1935 206.746 34.5257 206.746 37.3026V58.8489H213.967V38.2465C213.967 34.5813 214.523 32.4158 217.634 32.249C220.8 32.0823 221.078 34.8587 221.078 37.6912V58.8489H228.3V33.3596C228.3 30.0279 225.967 26.6957 220.634 26.6957C217.078 26.6957 214.8 28.0286 213.356 30.7499C212.856 27.8063 209.301 26.6402 206.635 26.6957C204.302 26.8069 201.357 27.3066 199.746 30.7499H199.635V27.5289Z" fill="black"/>
<path fill-rule="evenodd" clip-rule="evenodd" d="M248.168 45.9199C248.001 48.9186 248.778 54.3056 244.501 54.3056C241.835 54.3056 241.113 52.6949 241.113 50.307C241.113 48.9746 241.279 47.4199 242.334 46.5312C244.223 44.976 246.39 43.7543 248.168 42.5326V45.9199ZM256 59.0253C255.612 57.5818 255.389 56.1377 255.389 54.6391V36.1466C255.5 32.0368 254.889 26.8726 245.056 26.8726C236.001 26.8726 234.057 31.0374 234.113 36.9797H241.001C240.945 34.1473 241.501 32.4259 244.779 32.4259C246.723 32.4259 247.834 32.6477 248.168 34.0361C248.778 36.5907 247.668 37.9787 244.612 39.2565C238.946 41.5887 233.891 43.3102 233.891 50.4737C233.891 56.9158 236.446 59.8585 242.279 59.8585C244.723 59.8585 246.945 58.4144 248.612 55.8048H248.723C248.612 56.9158 248.667 58.0259 249.167 59.0253H256Z" fill="black"/>
</svg>
