<svg width="256" height="72" viewBox="0 0 256 72" fill="none" xmlns="http://www.w3.org/2000/svg">
<path d="M150.632 14.0055L142.567 14.006L140.075 21.673L137.583 14.006H129.519L136.043 9.26714L133.551 1.60059L140.075 6.33894L146.6 1.60059L144.108 9.26761L150.632 14.0055Z" fill="#E63228"/>
<path fill-rule="evenodd" clip-rule="evenodd" d="M150.632 14.0055L142.567 14.006L140.075 21.673L137.583 14.006H129.519L136.043 9.26714L133.551 1.60059L140.075 6.33894L146.6 1.60059L144.108 9.26761L150.632 14.0055Z" stroke="#E63228" stroke-width="0.00182429" stroke-miterlimit="2"/>
<path d="M20.5541 28.5288H14.6097L11.6104 47.854C11.2212 50.0751 10.9988 52.2962 10.8881 54.573H10.7769C10.7769 53.185 10.3326 48.576 10.1658 47.6317L7.61037 28.5288H0L6.44382 59.8488H14.4989L16.7213 46.7429C17.11 44.3004 17.3324 41.8005 17.4431 39.302H17.6655C17.8874 41.9677 18.1098 44.5774 18.6097 47.1875L20.9984 59.8488H28.8872L35.2198 28.5288H27.9425L25.5538 47.521C25.387 48.4644 24.9428 53.0738 24.9428 54.4623H24.776C24.6648 52.1851 24.4429 49.964 24.0537 47.7424L20.5541 28.5288Z" fill="white"/>
<path fill-rule="evenodd" clip-rule="evenodd" d="M52.7067 46.7429C52.5399 49.742 53.3178 55.1286 49.0403 55.1286C46.3736 55.1286 45.6514 53.5183 45.6514 51.13C45.6514 49.7976 45.8181 48.2429 46.874 47.3542C48.7628 45.799 50.9291 44.5773 52.7067 43.3556V46.7429ZM60.5395 59.8487C60.1508 58.4047 59.9279 56.9612 59.9279 55.4621V36.9696C60.04 32.8603 59.429 27.6956 49.5962 27.6956C40.5409 27.6956 38.5965 31.8604 38.6521 37.8027H45.5406C45.485 34.9703 46.0405 33.2489 49.3183 33.2489C51.2627 33.2489 52.3736 33.4712 52.7067 34.8591C53.3178 37.4137 52.2068 38.8022 49.1515 40.0795C43.485 42.4117 38.4297 44.1332 38.4297 51.2967C38.4297 57.7388 40.9852 60.6814 46.8184 60.6814C49.2627 60.6814 51.4846 59.2379 53.1515 56.6277H53.2622C53.1515 57.7388 53.2071 58.8493 53.7065 59.8487H60.5395Z" fill="white"/>
<path fill-rule="evenodd" clip-rule="evenodd" d="M66.7638 63.3472C67.1529 68.6226 71.0969 70.3996 75.8743 70.3996C85.7626 70.3996 87.5402 65.2909 87.5402 58.9049V28.5287H80.3185V31.7498H80.2073C79.2076 28.9173 77.2076 27.64 73.9303 27.6956C69.2636 27.8067 66.597 30.2502 66.4307 38.8578V50.1862C66.597 55.1838 67.8196 60.6815 73.9303 60.6815C77.0413 60.5152 79.0964 59.5709 80.5409 56.5727L80.6516 56.6838V60.2929C80.6516 62.7368 80.0962 65.1798 77.0413 65.1798C76.1522 65.1798 75.3744 65.0691 74.8189 64.7352C74.319 64.4578 73.9854 64.0136 73.9854 63.3472H66.7638ZM80.3185 40.1906V49.5753C80.3185 53.1849 79.152 55.1286 76.8189 55.1286C74.5965 55.1286 73.8191 52.7403 73.6523 49.7421V39.3019C73.8742 36.192 73.5412 33.2489 76.9296 33.2489C80.3185 33.2489 80.4297 37.6916 80.3185 40.1906Z" fill="white"/>
<path fill-rule="evenodd" clip-rule="evenodd" d="M107.75 46.7429C107.583 49.742 108.361 55.1286 104.083 55.1286C101.417 55.1286 100.694 53.5183 100.694 51.13C100.694 49.7976 100.861 48.2429 101.916 47.3542C103.805 45.799 105.972 44.5773 107.75 43.3556V46.7429ZM115.582 59.8487C115.194 58.4047 114.971 56.9612 114.971 55.4621V36.9696C115.082 32.8603 114.471 27.6956 104.639 27.6956C95.5838 27.6956 93.6394 31.8604 93.695 37.8027H100.583C100.528 34.9703 101.083 33.2489 104.361 33.2489C106.305 33.2489 107.416 33.4712 107.75 34.8591C108.361 37.4137 107.249 38.8022 104.194 40.0795C98.528 42.4117 93.4727 44.1332 93.4727 51.2967C93.4727 57.7388 96.0281 60.6814 101.861 60.6814C104.306 60.6814 106.528 59.2379 108.194 56.6277H108.305C108.194 57.7388 108.25 58.8493 108.749 59.8487H115.582Z" fill="white"/>
<path d="M129.595 28.5289H122.373V59.8489H129.595V39.2465C129.595 35.8036 129.762 33.3046 133.15 33.249C136.483 33.1935 136.706 35.5257 136.706 38.3026V59.8489H143.927V39.2465C143.927 35.5813 144.483 33.4158 147.594 33.249C150.76 33.0823 151.038 35.8587 151.038 38.6912V59.8489H158.26V34.3596C158.26 31.0279 155.926 27.6957 150.594 27.6957C147.038 27.6957 144.76 29.0286 143.316 31.7499C142.816 28.8063 139.261 27.6402 136.594 27.6957C134.261 27.8069 131.317 28.3066 129.706 31.7499H129.595V28.5289Z" fill="white"/>
<path fill-rule="evenodd" clip-rule="evenodd" d="M177.914 46.7429C177.747 49.742 178.525 55.1286 174.248 55.1286C171.581 55.1286 170.858 53.5183 170.858 51.13C170.858 49.7976 171.025 48.2429 172.081 47.3542C173.97 45.799 176.136 44.5773 177.914 43.3556V46.7429ZM185.747 59.8487C185.358 58.4047 185.135 56.9612 185.135 55.4621V36.9696C185.247 32.8603 184.636 27.6956 174.803 27.6956C165.747 27.6956 163.804 31.8604 163.859 37.8027H170.747C170.692 34.9703 171.248 33.2489 174.525 33.2489C176.469 33.2489 177.58 33.4712 177.914 34.8591C178.525 37.4137 177.414 38.8022 174.359 40.0795C168.692 42.4117 163.637 44.1332 163.637 51.2967C163.637 57.7388 166.192 60.6814 172.025 60.6814C174.469 60.6814 176.692 59.2379 178.358 56.6277H178.47C178.358 57.7388 178.414 58.8493 178.914 59.8487H185.747Z" fill="white"/>
<path d="M199.635 28.5289H192.413V59.8489H199.635V39.2465C199.635 35.8036 199.802 33.3046 203.19 33.249C206.523 33.1935 206.746 35.5257 206.746 38.3026V59.8489H213.967V39.2465C213.967 35.5813 214.523 33.4158 217.634 33.249C220.8 33.0823 221.078 35.8587 221.078 38.6912V59.8489H228.3V34.3596C228.3 31.0279 225.967 27.6957 220.634 27.6957C217.078 27.6957 214.8 29.0286 213.356 31.7499C212.856 28.8063 209.301 27.6402 206.635 27.6957C204.302 27.8069 201.357 28.3066 199.746 31.7499H199.635V28.5289Z" fill="white"/>
<path fill-rule="evenodd" clip-rule="evenodd" d="M248.168 46.9199C248.001 49.9186 248.778 55.3056 244.501 55.3056C241.835 55.3056 241.113 53.6949 241.113 51.307C241.113 49.9746 241.279 48.4199 242.334 47.5312C244.223 45.976 246.39 44.7543 248.168 43.5326V46.9199ZM256 60.0253C255.612 58.5818 255.389 57.1377 255.389 55.6391V37.1466C255.5 33.0368 254.889 27.8726 245.056 27.8726C236.001 27.8726 234.057 32.0374 234.113 37.9797H241.001C240.945 35.1473 241.501 33.4259 244.779 33.4259C246.723 33.4259 247.834 33.6477 248.168 35.0361C248.778 37.5907 247.668 38.9787 244.612 40.2565C238.946 42.5887 233.891 44.3102 233.891 51.4737C233.891 57.9158 236.446 60.8585 242.279 60.8585C244.723 60.8585 246.945 59.4144 248.612 56.8048H248.723C248.612 57.9158 248.667 59.0259 249.167 60.0253H256Z" fill="white"/>
</svg>
